<svg width="32" height="32" viewBox="0 0 32 32" fill="none" xmlns="http://www.w3.org/2000/svg">
<rect width="32" height="32" rx="2" fill="#121417"/>
<path fill-rule="evenodd" clip-rule="evenodd" d="M25.5182 9C26.845 9 28.0025 7.9789 28.0025 6.50005C28.0025 5.05634 26.845 4 25.5182 4C24.157 4 23 5.05634 23 6.50005C23 7.9789 24.157 9 25.5182 9Z" fill="#5095EE"/>
<path d="M11.8057 12C13.0849 12 14.3131 12.3239 15.3983 12.9078L15.3982 12.1971H19.6757V27.7845H15.3982L15.3983 26.9691C14.3131 27.5416 13.0849 27.8546 11.8057 27.8546C7.58638 27.8546 4 24.6167 4 19.9273C4 15.3495 7.58638 12 11.8057 12ZM11.7777 16.222C9.79895 16.222 8.11708 17.7876 8.11708 19.9273C8.11708 22.1192 9.79895 23.6327 11.7777 23.6327C13.7069 23.6327 15.3889 22.1192 15.3889 19.9273C15.3889 17.7876 13.7069 16.222 11.7777 16.222Z" fill="white"/>
</svg>
