<svg width="192" height="192" viewBox="0 0 192 192" fill="none" xmlns="http://www.w3.org/2000/svg">
<rect width="192" height="192" rx="41.1429" fill="url(#paint0_linear_122_5)"/>
<path d="M124.122 74.7808C124.784 74.7808 125.425 74.7808 126.087 74.7808C126.232 74.7808 126.356 74.7808 126.501 74.8222C127.039 74.9256 127.556 75.0704 128.094 75.1738C128.487 75.2566 128.901 75.3186 129.273 75.4428C129.811 75.6083 130.349 75.7944 130.866 76.0427C131.652 76.3944 132.417 76.7874 133.183 77.2011C134.238 77.7804 135.148 78.5458 136.058 79.3112C137.175 80.2628 138.065 81.3799 138.913 82.559C139.389 83.221 139.782 83.9657 140.134 84.6897C140.485 85.4138 140.733 86.1792 141.044 86.9446C141.251 87.4824 141.375 88.041 141.499 88.5995C141.664 89.3442 141.851 90.089 141.871 90.8751C141.871 91.1647 141.892 91.4543 141.913 91.7439C141.933 92.1163 141.995 92.4886 141.995 92.861C141.975 93.5643 141.892 94.2677 141.83 94.971C141.83 95.0331 141.83 95.1158 141.809 95.1779C141.623 95.9433 141.416 96.7294 141.251 97.4948C141.085 98.2602 140.795 98.9843 140.485 99.6876C140.071 100.639 139.575 101.529 139.016 102.398C138.479 103.225 137.899 104.011 137.237 104.694C133.969 108.066 130.68 111.396 127.37 114.727C126.273 115.844 125.156 116.961 124.06 118.078C121.226 120.954 118.412 123.85 115.578 126.725C113.365 128.98 111.131 131.214 108.897 133.469C107.18 135.207 105.483 136.965 103.787 138.723C102.773 139.778 101.615 140.73 100.787 141.951C100.394 142.53 100.001 143.13 99.7117 143.771C99.3186 144.64 98.9876 145.55 98.8014 146.522C98.636 147.433 98.4705 148.343 98.4705 149.274C98.4705 149.812 98.5739 150.37 98.6566 150.908C98.7187 151.404 98.7601 151.901 98.9049 152.377C99.1117 153.039 99.4014 153.701 99.6703 154.342C100.187 155.583 100.974 156.659 101.884 157.631C102.753 158.562 103.766 159.327 104.883 159.948C105.401 160.238 105.938 160.527 106.497 160.713C107.076 160.9 107.655 161.065 108.235 161.21C108.979 161.396 109.745 161.417 110.51 161.52C111.524 161.644 112.496 161.375 113.489 161.189C114.316 161.044 115.103 160.796 115.847 160.465C116.944 159.989 117.978 159.348 118.868 158.541C119.343 158.128 119.778 157.673 120.212 157.217C122.757 154.673 125.28 152.128 127.825 149.584C133.576 143.812 139.347 138.061 145.119 132.29C150.187 127.222 155.276 122.153 160.324 117.085C161.73 115.658 163.282 114.354 164.254 112.555C164.585 111.976 164.896 111.376 165.144 110.755C165.371 110.196 165.454 109.576 165.62 108.997C165.868 108.231 165.868 107.445 165.951 106.659C166.033 106.038 165.847 105.439 165.826 104.818C165.785 103.99 165.475 103.225 165.33 102.418C165.206 101.798 164.958 101.198 164.792 100.577C164.544 99.6669 164.337 98.7567 164.109 97.8465C164.027 97.5569 163.944 97.2466 163.861 96.957C163.675 96.3364 163.489 95.7364 163.323 95.1158C163.158 94.4952 163.034 93.8539 162.868 93.2333C162.682 92.4886 162.475 91.7646 162.268 91.0406C162.186 90.7096 162.082 90.3786 161.999 90.0476C161.813 89.427 161.648 88.8064 161.462 88.2065C161.255 87.5031 161.068 86.7998 160.882 86.0964C160.8 85.7861 160.717 85.4758 160.634 85.1655C160.469 84.5035 160.324 83.8416 160.158 83.2003C159.993 82.5797 159.786 81.9591 159.62 81.3385C159.455 80.6972 159.31 80.0559 159.145 79.4146C158.958 78.6699 158.752 77.9459 158.545 77.2011C158.462 76.8908 158.379 76.5805 158.296 76.2702C158.193 75.8772 158.069 75.5048 157.965 75.1118C157.862 74.7601 157.8 74.3877 157.697 74.0361C157.531 73.4362 157.324 72.8362 157.159 72.2363C157.014 71.7398 156.89 71.2227 156.745 70.7262C156.662 70.4366 156.6 70.1263 156.517 69.8367C156.352 69.2781 156.248 68.6782 156.021 68.1403C155.669 67.3129 155.235 66.5061 154.738 65.7407C153.807 64.3547 152.67 63.1962 151.263 62.3274C150.56 61.893 149.815 61.4999 149.05 61.1482C148.594 60.9414 148.098 60.8172 147.601 60.6931C147.229 60.5897 146.836 60.5276 146.464 60.4449C146.195 60.3828 145.905 60.3001 145.636 60.2173C145.243 60.0932 144.829 59.9691 144.436 59.8657C144.064 59.7622 143.671 59.7002 143.299 59.5967C142.906 59.4933 142.533 59.3485 142.14 59.2451C141.788 59.1416 141.416 59.0796 141.044 58.9968C140.423 58.8106 139.803 58.6038 139.161 58.4383C138.52 58.2728 137.879 58.1487 137.237 57.9832C136.617 57.8177 135.996 57.5901 135.355 57.4246C134.734 57.2591 134.114 57.1143 133.493 56.9695C133.141 56.8868 132.81 56.804 132.459 56.7006C131.859 56.5351 131.28 56.3282 130.68 56.1627C130.038 55.9972 129.397 55.8731 128.756 55.7076C128.115 55.5421 127.473 55.3146 126.832 55.1284C126.067 54.9215 125.301 54.7147 124.536 54.5078C123.915 54.3423 123.295 54.2182 122.653 54.0527C122.322 53.9699 122.012 53.8872 121.681 53.7838C121.309 53.6803 120.936 53.5562 120.564 53.4528C120.192 53.3493 119.798 53.308 119.426 53.2045C118.806 53.039 118.206 52.8115 117.585 52.646C116.799 52.4184 116.033 52.2323 115.247 52.0254C114.978 51.9426 114.689 51.8806 114.42 51.8185C114.027 51.7358 113.613 51.6737 113.241 51.5703C112.455 51.3427 111.648 51.26 110.841 51.2186C110.303 51.1979 109.745 51.26 109.207 51.3427C108.504 51.4462 107.8 51.5289 107.138 51.7771C106.518 52.0047 105.856 52.1702 105.256 52.4598C104.035 53.0804 102.897 53.8458 101.925 54.8388C100.084 56.7213 98.2222 58.5624 96.4018 60.4656C94.6227 62.3274 92.7195 64.0651 91.106 66.051C90.4854 66.8164 89.9475 67.6232 89.5131 68.492C89.1407 69.2367 88.8511 70.0022 88.6649 70.8089C88.4581 71.6778 88.2719 72.5466 88.2926 73.4362C88.3133 73.9119 88.2719 74.4084 88.3133 74.8842C88.3546 75.4221 88.4167 75.9806 88.5615 76.4978C88.7684 77.2011 89.058 77.8838 89.3062 78.5871C89.6372 79.6008 90.2371 80.4696 90.8784 81.2764C91.6232 82.2073 92.492 83.0762 93.5056 83.7381C94.3331 84.276 95.1813 84.7725 96.1329 85.0828C96.6293 85.2483 97.1258 85.4138 97.6223 85.5172C98.3877 85.6827 99.1531 85.8689 99.9392 85.8689C100.663 85.8689 101.367 85.8482 102.091 85.7241C102.939 85.5793 103.766 85.3724 104.573 85.0828C105.545 84.7311 106.435 84.2346 107.304 83.6554C108.524 82.8279 109.455 81.6695 110.593 80.7593C110.924 80.4903 111.172 80.0973 111.482 79.787C112.579 78.7733 113.717 77.8424 115.02 77.077C115.496 76.8081 115.992 76.5805 116.468 76.3323C117.006 76.0634 117.544 75.8151 118.144 75.6703C118.537 75.5669 118.888 75.4221 119.281 75.298C119.612 75.1945 119.985 75.1738 120.316 75.0497C120.895 74.8222 121.515 74.8015 122.115 74.7187C122.777 74.7187 123.46 74.7808 124.122 74.7808Z" fill="url(#paint1_linear_122_5)" fill-opacity="0.7"/>
<path d="M124.122 74.7783C123.46 74.7783 122.777 74.7162 122.115 74.799C121.515 74.8817 120.895 74.9231 120.316 75.13C119.985 75.2541 119.633 75.2748 119.281 75.3782C118.888 75.4816 118.537 75.6471 118.144 75.7506C117.564 75.8954 117.006 76.1436 116.468 76.4125C115.971 76.6608 115.475 76.8676 115.02 77.1573C113.737 77.9227 112.579 78.8536 111.482 79.8672C111.172 80.1568 110.924 80.5706 110.593 80.8395C109.455 81.7497 108.524 82.9082 107.304 83.7356C106.435 84.3149 105.545 84.8113 104.573 85.163C103.766 85.4526 102.939 85.6388 102.091 85.8043C101.367 85.9284 100.663 85.9491 99.9392 85.9491C99.1531 85.9698 98.3877 85.7629 97.6223 85.5974C97.1051 85.494 96.6293 85.3285 96.1329 85.163C95.1813 84.8527 94.3331 84.3562 93.5056 83.8184C92.492 83.1564 91.6232 82.2876 90.8784 81.3567C90.2371 80.5499 89.6372 79.681 89.3062 78.6674C89.0787 77.964 88.7684 77.2814 88.5615 76.578C88.4167 76.0609 88.3546 75.5023 88.3133 74.9645C88.2719 74.4887 88.3133 73.9922 88.2926 73.5164C88.2719 72.6269 88.4581 71.758 88.6649 70.8892C88.8511 70.0824 89.1614 69.317 89.5131 68.5723C89.9475 67.7034 90.4854 66.8966 91.106 66.1312C92.7402 64.1453 94.6227 62.3869 96.4018 60.5458C98.2222 58.6426 100.084 56.8015 101.925 54.919C102.897 53.9261 104.035 53.1607 105.256 52.5401C105.856 52.2297 106.518 52.0849 107.138 51.8574C107.821 51.6091 108.504 51.5264 109.207 51.423C109.745 51.3402 110.303 51.2575 110.841 51.2988C111.648 51.3402 112.455 51.423 113.241 51.6505C113.634 51.754 114.027 51.816 114.42 51.8988C114.71 51.9608 114.978 52.0436 115.247 52.1056C116.033 52.3125 116.82 52.5194 117.585 52.7262C118.206 52.8917 118.806 53.1193 119.426 53.2848C119.798 53.3882 120.192 53.4503 120.564 53.533C120.936 53.6364 121.309 53.7606 121.681 53.864C122.012 53.9674 122.322 54.0502 122.653 54.1329C123.274 54.2777 123.894 54.4225 124.536 54.588C125.301 54.7742 126.067 54.9811 126.832 55.2086C127.473 55.3948 128.115 55.6017 128.756 55.7879C129.397 55.9534 130.038 56.0775 130.68 56.243C131.28 56.4085 131.88 56.5946 132.459 56.7808C132.81 56.8843 133.141 56.967 133.493 57.0498C134.114 57.1946 134.734 57.3394 135.355 57.5049C135.975 57.6704 136.596 57.8979 137.237 58.0634C137.879 58.2289 138.52 58.353 139.161 58.5185C139.803 58.684 140.402 58.8909 141.044 59.0771C141.395 59.1805 141.768 59.2425 142.14 59.3253C142.533 59.4287 142.906 59.5735 143.299 59.677C143.671 59.7804 144.064 59.8425 144.436 59.9459C144.829 60.0493 145.243 60.1735 145.636 60.2976C145.905 60.3803 146.174 60.4631 146.464 60.5251C146.836 60.6079 147.229 60.6699 147.601 60.7734C148.098 60.8975 148.594 61.0216 149.049 61.2285C149.794 61.5802 150.539 61.9732 151.263 62.4076C152.67 63.2971 153.807 64.4349 154.738 65.8209C155.256 66.5863 155.669 67.3931 156.021 68.2206C156.248 68.7584 156.373 69.3377 156.517 69.9169C156.6 70.2065 156.662 70.5168 156.745 70.8064C156.869 71.3236 157.014 71.8201 157.159 72.3166C157.324 72.9165 157.531 73.5164 157.697 74.1163C157.8 74.468 157.862 74.8403 157.965 75.192C158.069 75.5851 158.193 75.9781 158.296 76.3505C158.379 76.6608 158.462 76.9711 158.545 77.2814C158.752 78.0261 158.938 78.7501 159.145 79.4949C159.31 80.1361 159.455 80.7774 159.62 81.4187C159.786 82.0393 159.993 82.6599 160.158 83.2805C160.324 83.9425 160.489 84.6045 160.634 85.2458C160.717 85.5561 160.8 85.8664 160.882 86.1767C161.068 86.88 161.275 87.5834 161.462 88.2867C161.627 88.9073 161.813 89.5279 161.999 90.1278C162.103 90.4588 162.186 90.7898 162.268 91.1208C162.475 91.8448 162.682 92.5896 162.868 93.3136C163.034 93.9342 163.158 94.5755 163.323 95.1961C163.489 95.8167 163.696 96.4166 163.861 97.0372C163.944 97.3268 164.027 97.6164 164.109 97.9267C164.337 98.8369 164.544 99.7472 164.792 100.657C164.958 101.278 165.226 101.878 165.33 102.498C165.475 103.305 165.785 104.071 165.826 104.898C165.868 105.519 166.033 106.119 165.951 106.739C165.847 107.525 165.847 108.311 165.62 109.077C165.433 109.656 165.351 110.277 165.144 110.835C164.896 111.456 164.585 112.056 164.254 112.635C163.282 114.435 161.73 115.738 160.324 117.165C155.256 122.254 150.187 127.302 145.119 132.37C139.347 138.142 133.597 143.893 127.825 149.664C125.28 152.209 122.757 154.753 120.212 157.298C119.757 157.753 119.323 158.187 118.868 158.622C117.978 159.428 116.944 160.07 115.847 160.545C115.103 160.876 114.316 161.125 113.489 161.269C112.496 161.435 111.503 161.725 110.51 161.6C109.765 161.497 109 161.476 108.235 161.29C107.635 161.145 107.055 160.98 106.497 160.794C105.938 160.608 105.401 160.318 104.883 160.028C103.766 159.408 102.753 158.642 101.884 157.711C100.974 156.739 100.208 155.663 99.6703 154.422C99.4014 153.781 99.1117 153.119 98.9049 152.457C98.7601 151.981 98.7187 151.485 98.6566 150.988C98.5739 150.45 98.4911 149.892 98.4705 149.354C98.4705 148.423 98.6359 147.513 98.8014 146.603C98.9669 145.63 99.3186 144.741 99.7117 143.851C100.001 143.21 100.394 142.61 100.787 142.031C101.636 140.81 102.773 139.859 103.787 138.804C105.483 137.045 107.18 135.287 108.897 133.549C111.11 131.294 113.344 129.06 115.578 126.805C118.412 123.93 121.226 121.034 124.06 118.158C125.156 117.041 126.273 115.924 127.37 114.807C130.659 111.456 133.969 108.146 137.237 104.774C137.899 104.071 138.499 103.285 139.016 102.478C139.575 101.609 140.071 100.719 140.485 99.7679C140.795 99.0645 141.085 98.3405 141.251 97.5751C141.416 96.789 141.623 96.0236 141.809 95.2581C141.83 95.1961 141.83 95.1133 141.83 95.0513C141.892 94.3479 141.954 93.6446 141.995 92.9412C142.016 92.5689 141.954 92.1965 141.913 91.8241C141.892 91.5345 141.871 91.2449 141.871 90.9553C141.851 90.1899 141.664 89.4452 141.499 88.6798C141.375 88.1212 141.251 87.5627 141.044 87.0248C140.754 86.2801 140.485 85.494 140.134 84.77C139.782 84.0252 139.389 83.3012 138.913 82.6392C138.065 81.4601 137.175 80.343 136.058 79.3914C135.148 78.626 134.238 77.8399 133.183 77.2814C132.417 76.8676 131.652 76.4746 130.866 76.1229C130.349 75.8954 129.811 75.7092 129.273 75.523C128.88 75.3989 128.487 75.3575 128.094 75.2541C127.556 75.13 127.039 75.0058 126.501 74.9024C126.377 74.8817 126.232 74.861 126.087 74.861C125.446 74.7783 124.784 74.7783 124.122 74.7783Z" fill="url(#paint2_linear_122_5)" fill-opacity="0.7"/>
<path d="M69.2823 122.856C68.6203 122.856 67.979 122.856 67.3171 122.856C67.1723 122.856 67.0481 122.856 66.9033 122.815C66.3655 122.712 65.8483 122.567 65.3105 122.463C64.9174 122.381 64.5037 122.319 64.1313 122.194C63.5935 122.029 63.0556 121.843 62.5384 121.595C61.7523 121.243 60.9869 120.85 60.2215 120.436C59.1665 119.857 58.2563 119.091 57.3461 118.326C56.229 117.374 55.3394 116.257 54.4913 115.078C54.0155 114.416 53.6225 113.672 53.2708 112.947C52.9191 112.223 52.6709 111.458 52.3606 110.693C52.1537 110.155 52.0296 109.596 51.9054 109.038C51.74 108.293 51.5538 107.548 51.5331 106.762C51.5331 106.473 51.5124 106.183 51.4917 105.893C51.471 105.521 51.409 105.149 51.409 104.776C51.4297 104.073 51.5124 103.37 51.5745 102.666C51.5745 102.604 51.5745 102.521 51.5951 102.459C51.7813 101.694 51.9882 100.908 52.1537 100.142C52.3192 99.377 52.6088 98.6529 52.9191 97.9496C53.3328 96.998 53.8293 96.1085 54.3879 95.2396C54.9257 94.4122 55.5049 93.6261 56.1669 92.9434C59.4354 89.5715 62.7246 86.2409 66.0345 82.9103C67.1309 81.7933 68.248 80.6762 69.3444 79.5591C72.1785 76.6836 74.9918 73.7875 77.8259 70.912C80.0394 68.6572 82.2736 66.423 84.5077 64.1682C86.2247 62.4305 87.9211 60.6721 89.6174 58.9137C90.631 57.8587 91.7895 56.9071 92.6169 55.6866C93.01 55.1074 93.403 54.5075 93.6926 53.8662C94.0857 52.9973 94.4167 52.0871 94.6029 51.1148C94.7684 50.2046 94.9338 49.2944 94.9338 48.3635C94.9338 47.8257 94.8304 47.2671 94.7477 46.7293C94.6856 46.2328 94.6442 45.7363 94.4994 45.2605C94.2926 44.5985 94.0029 43.9366 93.734 43.2953C93.2168 42.0541 92.4308 40.9784 91.5205 40.0061C90.6517 39.0752 89.638 38.3098 88.521 37.6892C88.0038 37.3995 87.4659 37.1099 86.9074 36.9238C86.3282 36.7376 85.7489 36.5721 85.1697 36.4273C84.425 36.2411 83.6596 36.2204 82.8942 36.117C81.8805 35.9928 80.9083 36.2618 79.9153 36.448C79.0878 36.5928 78.3017 36.841 77.557 37.172C76.4606 37.6478 75.4263 38.2891 74.5367 39.0959C74.0609 39.5096 73.6265 39.9647 73.1921 40.4198C70.6476 42.9643 68.1239 45.5087 65.5794 48.0532C59.8285 53.8248 54.0569 59.5757 48.2853 65.3473C43.217 70.4156 38.1281 75.4838 33.0805 80.5521C31.6738 81.9794 30.1223 83.2827 29.1501 85.0824C28.8191 85.6617 28.5088 86.2616 28.2605 86.8822C28.033 87.4407 27.9502 88.0613 27.7847 88.6406C27.5365 89.406 27.5365 90.1921 27.4538 90.9782C27.371 91.5988 27.5572 92.1987 27.5779 92.8193C27.6192 93.6468 27.9295 94.4122 28.0744 95.2189C28.1985 95.8395 28.4467 96.4395 28.6122 97.0601C28.8604 97.9703 29.0673 98.8805 29.2949 99.7907C29.3776 100.08 29.4604 100.391 29.5431 100.68C29.7293 101.301 29.9155 101.901 30.081 102.521C30.2464 103.142 30.3706 103.783 30.5361 104.404C30.7222 105.149 30.9291 105.873 31.136 106.597C31.2187 106.928 31.3222 107.259 31.4049 107.59C31.5911 108.21 31.7566 108.831 31.9428 109.431C32.1496 110.134 32.3358 110.837 32.522 111.541C32.6047 111.851 32.6875 112.161 32.7702 112.472C32.9357 113.134 33.0805 113.796 33.246 114.437C33.4115 115.058 33.6184 115.678 33.7839 116.299C33.9494 116.94 34.0942 117.581 34.2597 118.223C34.4459 118.967 34.6527 119.691 34.8596 120.436C34.9423 120.746 35.0251 121.057 35.1078 121.367C35.2113 121.76 35.3354 122.132 35.4388 122.525C35.5423 122.877 35.6043 123.249 35.7077 123.601C35.8732 124.201 36.0801 124.801 36.2456 125.401C36.3904 125.897 36.5145 126.415 36.6593 126.911C36.7421 127.201 36.8041 127.511 36.8869 127.801C37.0524 128.359 37.1558 128.959 37.3834 129.497C37.735 130.324 38.1695 131.131 38.6659 131.897C39.5968 133.283 40.7346 134.441 42.1413 135.31C42.8447 135.744 43.5894 136.137 44.3548 136.489C44.8099 136.696 45.3064 136.82 45.8029 136.944C46.1752 137.048 46.5683 137.11 46.9406 137.192C47.2096 137.254 47.4992 137.337 47.7681 137.42C48.1611 137.544 48.5749 137.668 48.9679 137.772C49.3403 137.875 49.7333 137.937 50.1057 138.04C50.4988 138.144 50.8711 138.289 51.2642 138.392C51.6158 138.496 51.9882 138.558 52.3606 138.64C52.9812 138.827 53.6018 139.033 54.2431 139.199C54.8843 139.364 55.5256 139.489 56.1669 139.654C56.7875 139.82 57.4081 140.047 58.0494 140.213C58.67 140.378 59.2906 140.523 59.9112 140.668C60.2629 140.75 60.5939 140.833 60.9455 140.937C61.5455 141.102 62.1247 141.309 62.7246 141.474C63.3659 141.64 64.0072 141.764 64.6485 141.93C65.2898 142.095 65.9311 142.323 66.5723 142.509C67.3377 142.716 68.1032 142.923 68.8686 143.129C69.4892 143.295 70.1098 143.419 70.7511 143.585C71.082 143.667 71.3924 143.75 71.7233 143.853C72.0957 143.957 72.4681 144.081 72.8404 144.184C73.2128 144.288 73.6058 144.329 73.9782 144.433C74.5988 144.598 75.1987 144.826 75.8193 144.991C76.6054 145.219 77.3708 145.405 78.1569 145.612C78.4258 145.695 78.7154 145.757 78.9844 145.819C79.3774 145.901 79.7912 145.963 80.1635 146.067C80.9496 146.294 81.7564 146.377 82.5632 146.419C83.101 146.439 83.6596 146.377 84.1974 146.294C84.9008 146.191 85.6041 146.108 86.2661 145.86C86.8867 145.633 87.5487 145.467 88.1486 145.177C89.3691 144.557 90.5069 143.791 91.4792 142.798C93.3203 140.916 95.1821 139.075 97.0025 137.172C98.7816 135.31 100.685 133.572 102.298 131.586C102.919 130.821 103.457 130.014 103.891 129.145C104.264 128.4 104.553 127.635 104.739 126.828C104.946 125.959 105.132 125.091 105.112 124.201C105.091 123.725 105.132 123.229 105.091 122.753C105.05 122.215 104.988 121.657 104.843 121.139C104.636 120.436 104.346 119.753 104.098 119.05C103.767 118.036 103.167 117.168 102.526 116.361C101.781 115.43 100.912 114.561 99.8987 113.899C99.0712 113.361 98.223 112.865 97.2714 112.554C96.775 112.389 96.2785 112.223 95.782 112.12C95.0166 111.955 94.2512 111.768 93.4651 111.768C92.741 111.768 92.0377 111.789 91.3137 111.913C90.4655 112.058 89.638 112.265 88.8313 112.554C87.859 112.906 86.9695 113.403 86.1006 113.982C84.8801 114.809 83.9492 115.968 82.8114 116.878C82.4804 117.147 82.2322 117.54 81.9219 117.85C80.8255 118.864 79.6877 119.795 78.3845 120.56C77.9087 120.829 77.4122 121.057 76.9364 121.305C76.3985 121.574 75.8607 121.822 75.2608 121.967C74.8677 122.07 74.516 122.215 74.123 122.339C73.792 122.443 73.4196 122.463 73.0887 122.587C72.5094 122.815 71.8888 122.836 71.2889 122.918C70.6269 122.918 69.9443 122.856 69.2823 122.856Z" fill="url(#paint3_linear_122_5)" fill-opacity="0.7"/>
<path d="M69.2823 122.859C69.9443 122.859 70.6269 122.921 71.2889 122.838C71.8888 122.755 72.5094 122.714 73.0887 122.507C73.4197 122.383 73.7713 122.362 74.123 122.259C74.5161 122.155 74.8677 121.99 75.2608 121.886C75.84 121.742 76.3985 121.493 76.9364 121.224C77.4329 120.976 77.9294 120.769 78.3845 120.48C79.667 119.714 80.8255 118.783 81.9219 117.77C82.2322 117.48 82.4804 117.066 82.8114 116.797C83.9492 115.887 84.8801 114.729 86.1006 113.901C86.9695 113.322 87.859 112.826 88.8313 112.474C89.638 112.184 90.4655 111.998 91.3137 111.833C92.0377 111.709 92.7411 111.688 93.4651 111.688C94.2512 111.667 95.0166 111.874 95.782 112.04C96.2992 112.143 96.775 112.308 97.2714 112.474C98.223 112.784 99.0712 113.281 99.8987 113.819C100.912 114.481 101.781 115.349 102.526 116.28C103.167 117.087 103.767 117.956 104.098 118.97C104.326 119.673 104.636 120.356 104.843 121.059C104.988 121.576 105.05 122.135 105.091 122.673C105.132 123.148 105.091 123.645 105.112 124.121C105.132 125.01 104.946 125.879 104.739 126.748C104.553 127.555 104.243 128.32 103.891 129.065C103.457 129.934 102.919 130.74 102.298 131.506C100.664 133.492 98.7816 135.25 97.0025 137.091C95.1821 138.994 93.3203 140.835 91.4792 142.718C90.5069 143.711 89.3691 144.476 88.1486 145.097C87.5487 145.407 86.8867 145.552 86.2661 145.78C85.5834 146.028 84.9008 146.111 84.1974 146.214C83.6596 146.297 83.101 146.379 82.5632 146.338C81.7564 146.297 80.9496 146.214 80.1635 145.986C79.7705 145.883 79.3774 145.821 78.9844 145.738C78.6948 145.676 78.4258 145.593 78.1569 145.531C77.3708 145.324 76.5847 145.118 75.8193 144.911C75.1987 144.745 74.5988 144.518 73.9782 144.352C73.6058 144.249 73.2128 144.187 72.8404 144.104C72.4681 144.001 72.0957 143.876 71.7233 143.773C71.3924 143.67 71.0821 143.587 70.7511 143.504C70.1305 143.359 69.5099 143.214 68.8686 143.049C68.1032 142.863 67.3378 142.656 66.5723 142.428C65.9311 142.242 65.2898 142.035 64.6485 141.849C64.0072 141.684 63.3659 141.559 62.7246 141.394C62.1247 141.228 61.5248 141.042 60.9456 140.856C60.5939 140.753 60.2629 140.67 59.9112 140.587C59.2906 140.442 58.67 140.298 58.0494 140.132C57.4288 139.967 56.8082 139.739 56.1669 139.574C55.5256 139.408 54.8844 139.284 54.2431 139.118C53.6018 138.953 53.0019 138.746 52.3606 138.56C52.0089 138.456 51.6365 138.394 51.2642 138.312C50.8711 138.208 50.4988 138.063 50.1057 137.96C49.7334 137.857 49.3403 137.794 48.968 137.691C48.5749 137.588 48.1612 137.464 47.7681 137.339C47.4992 137.257 47.2303 137.174 46.9406 137.112C46.5683 137.029 46.1752 136.967 45.8029 136.864C45.3064 136.739 44.8099 136.615 44.3548 136.408C43.6101 136.057 42.8654 135.664 42.1413 135.229C40.7346 134.34 39.5969 133.202 38.666 131.816C38.1488 131.051 37.7351 130.244 37.3834 129.416C37.1558 128.879 37.0317 128.299 36.8869 127.72C36.8042 127.43 36.7421 127.12 36.6594 126.831C36.5352 126.313 36.3904 125.817 36.2456 125.32C36.0801 124.72 35.8733 124.121 35.7078 123.521C35.6043 123.169 35.5423 122.797 35.4388 122.445C35.3354 122.052 35.2113 121.659 35.1079 121.286C35.0251 120.976 34.9424 120.666 34.8596 120.356C34.6527 119.611 34.4666 118.887 34.2597 118.142C34.0942 117.501 33.9494 116.86 33.7839 116.218C33.6184 115.598 33.4115 114.977 33.246 114.356C33.0806 113.694 32.915 113.032 32.7702 112.391C32.6875 112.081 32.6048 111.771 32.522 111.46C32.3358 110.757 32.129 110.054 31.9428 109.35C31.7773 108.73 31.5911 108.109 31.4049 107.509C31.3015 107.178 31.2187 106.847 31.136 106.516C30.9291 105.792 30.7223 105.047 30.5361 104.323C30.3706 103.703 30.2465 103.061 30.081 102.441C29.9155 101.82 29.7086 101.22 29.5431 100.6C29.4604 100.31 29.3776 100.021 29.2949 99.7102C29.0673 98.8 28.8605 97.8898 28.6122 96.9796C28.4467 96.359 28.1778 95.7591 28.0744 95.1385C27.9296 94.3317 27.6193 93.5663 27.5779 92.7388C27.5365 92.1182 27.371 91.5183 27.4538 90.8977C27.5572 90.1116 27.5572 89.3255 27.7848 88.5601C27.9709 87.9808 28.0537 87.3602 28.2605 86.8017C28.5088 86.1811 28.8191 85.5812 29.1501 85.002C30.1223 83.2022 31.6738 81.899 33.0805 80.4716C38.1488 75.3826 43.217 70.3351 48.2853 65.2668C54.0569 59.4952 59.8078 53.7443 65.5794 47.9727C68.1239 45.4283 70.6476 42.8838 73.1921 40.3393C73.6472 39.8842 74.0816 39.4498 74.5367 39.0154C75.4263 38.2086 76.4606 37.5673 77.557 37.0915C78.3017 36.7605 79.0878 36.5123 79.9153 36.3675C80.9083 36.202 81.9012 35.9124 82.8942 36.0365C83.6389 36.1399 84.4043 36.1606 85.1697 36.3468C85.7696 36.4916 86.3489 36.6571 86.9074 36.8433C87.4659 37.0294 88.0038 37.3191 88.521 37.6087C89.638 38.2293 90.6517 38.9947 91.5205 39.9256C92.4308 40.8979 93.1962 41.9736 93.734 43.2148C94.0029 43.8561 94.2926 44.518 94.4994 45.18C94.6442 45.6558 94.6856 46.1523 94.7477 46.6488C94.8304 47.1866 94.9132 47.7452 94.9339 48.283C94.9339 49.2139 94.7684 50.1241 94.6029 51.0344C94.4374 52.0066 94.0857 52.8962 93.6926 53.7857C93.403 54.427 93.01 55.0269 92.6169 55.6061C91.7688 56.8266 90.631 57.7782 89.6174 58.8333C87.9211 60.5916 86.2247 62.35 84.5077 64.0877C82.2943 66.3425 80.0601 68.5767 77.8259 70.8316C74.9919 73.707 72.1785 76.6032 69.3444 79.4786C68.248 80.5957 67.1309 81.7128 66.0345 82.8299C62.7453 86.1811 59.4354 89.491 56.1669 92.8629C55.505 93.5663 54.905 94.3524 54.3879 95.1591C53.8293 96.028 53.3329 96.9175 52.9191 97.8691C52.6088 98.5725 52.3192 99.2965 52.1537 100.062C51.9882 100.848 51.7813 101.613 51.5952 102.379C51.5745 102.441 51.5745 102.524 51.5745 102.586C51.5124 103.289 51.4504 103.992 51.409 104.696C51.3883 105.068 51.4504 105.44 51.4917 105.813C51.5124 106.102 51.5331 106.392 51.5331 106.682C51.5538 107.447 51.74 108.192 51.9055 108.957C52.0296 109.516 52.1537 110.074 52.3606 110.612C52.6502 111.357 52.9191 112.143 53.2708 112.867C53.6225 113.612 54.0155 114.336 54.4913 114.998C55.3395 116.177 56.229 117.294 57.3461 118.246C58.2563 119.011 59.1665 119.797 60.2215 120.356C60.9869 120.769 61.7523 121.162 62.5384 121.514C63.0556 121.742 63.5935 121.928 64.1313 122.114C64.5244 122.238 64.9174 122.279 65.3105 122.383C65.8483 122.507 66.3655 122.631 66.9033 122.735C67.0275 122.755 67.1723 122.776 67.3171 122.776C67.9584 122.859 68.6203 122.859 69.2823 122.859Z" fill="url(#paint4_linear_122_5)" fill-opacity="0.7"/>
<defs>
<linearGradient id="paint0_linear_122_5" x1="-78.1241" y1="97.8824" x2="272.697" y2="97.6151" gradientUnits="userSpaceOnUse">
<stop stop-color="#7B3611"/>
<stop offset="1" stop-color="#D99DAC"/>
</linearGradient>
<linearGradient id="paint1_linear_122_5" x1="127.131" y1="51.2146" x2="127.131" y2="161.552" gradientUnits="userSpaceOnUse">
<stop stop-color="#F5F5F5"/>
<stop offset="1" stop-color="white" stop-opacity="0.8"/>
</linearGradient>
<linearGradient id="paint2_linear_122_5" x1="127.132" y1="51.2878" x2="127.132" y2="161.631" gradientUnits="userSpaceOnUse">
<stop stop-color="#F5F5F5"/>
<stop offset="1" stop-color="white" stop-opacity="0.8"/>
</linearGradient>
<linearGradient id="paint3_linear_122_5" x1="66.273" y1="146.423" x2="66.273" y2="36.0854" gradientUnits="userSpaceOnUse">
<stop stop-color="#F5F5F5"/>
<stop offset="1" stop-color="white" stop-opacity="0.8"/>
</linearGradient>
<linearGradient id="paint4_linear_122_5" x1="66.2721" y1="146.349" x2="66.2721" y2="36.0064" gradientUnits="userSpaceOnUse">
<stop stop-color="#F5F5F5"/>
<stop offset="1" stop-color="white" stop-opacity="0.8"/>
</linearGradient>
</defs>
</svg>
