<svg width="62" height="62" viewBox="0 0 62 62" fill="none" xmlns="http://www.w3.org/2000/svg">
<rect width="62" height="62" rx="8" fill="white"/>
<path d="M39.2012 21.3406L52.5782 27.4101C55.5042 23.4246 53.77 18.3363 48.6973 16.0317L31.0038 8L13.3027 16.0317C8.22996 18.3287 6.49576 23.4246 9.42175 27.4101L22.5849 21.4395L30.9962 17.6366L39.1935 21.3406H39.2012Z" fill="#F3B942"/>
<path d="M39.2012 34.6375L52.5782 40.7069C55.5042 36.7215 53.77 31.6332 48.6973 29.3286L31.0038 21.2969L13.3027 29.3286C8.22996 31.6256 6.49576 36.7215 9.42175 40.7069L22.5849 34.7364L30.9962 30.9334L39.1935 34.6375H39.2012Z" fill="#4EADDD"/>
<path d="M39.2009 47.9305L52.578 53.9999C55.504 50.0144 53.7698 44.9262 48.697 42.6216L31.0035 34.5898L13.3101 42.6216C8.22969 44.9262 6.49548 50.0144 9.42148 53.9999L22.5846 48.0293L30.9959 44.2264L39.1933 47.9305H39.2009Z" fill="#EB484B"/>
</svg>
