<svg width="95" height="94" viewBox="0 0 95 94" fill="none" xmlns="http://www.w3.org/2000/svg">
<path d="M47.5 93.8C73.3469 93.8 94.3 72.8469 94.3 47C94.3 21.1531 73.3469 0.200012 47.5 0.200012C21.6531 0.200012 0.700012 21.1531 0.700012 47C0.700012 72.8469 21.6531 93.8 47.5 93.8Z" fill="#2868F7"/>
<path d="M87.2 22.2L54.6 68.8L52.6 57.8C56.6 55.9 59.5 51.8 59.5 47C59.5 40.8 54.7 35.6 48.6 35.1L45.8 19.4C45.6 18.2 44.9 17.2 43.9 16.5C41.8 15.1 39 15.6 37.5 17.6L4.40002 65.1C5.40002 67.3 6.50003 69.6 7.80003 71.6L40.3 25L42.3 36.2C38.4 38.2 35.6 42.2 35.6 46.9C35.6 53 40.3 58.1 46.2 58.8L49 74.5C49.2 75.7 49.9 76.8 50.9 77.4C53 78.8 55.8 78.3 57.2 76.3L90.5 28.6C89.6 26.4 88.4 24.2 87.2 22.2ZM41.9 47C41.9 43.9 44.4 41.4 47.5 41.4C50.6 41.4 53.1 43.9 53.1 47C53.1 50.1 50.6 52.6 47.5 52.6C44.4 52.6 41.9 50.1 41.9 47Z" fill="white"/>
</svg>
