<svg width="24" height="24" viewBox="0 0 24 24" fill="none" xmlns="http://www.w3.org/2000/svg">
<rect width="24" height="24" rx="3" fill="black"/>
<path d="M7.72808 10.8666H9.73372V9.02472H12.0363L13.4562 7.08939H3.93534C2.86661 7.08939 2 7.956 2 9.02472H7.72808V10.8666Z" fill="#00BAFF"/>
<path d="M20.9973 7C20.676 7 20.39 7.15135 20.2065 7.38659V7.38635L20.205 7.3885C20.1778 7.42361 20.1529 7.46048 20.1304 7.49885L16.4073 13.0119V8.00271C16.4073 7.44904 15.9583 7 15.4044 7C15.0824 7 14.7961 7.15182 14.6126 7.38778L14.6123 7.38635L9.89031 13.5518L9.73372 11.4224H7.72807V15.438C7.72807 16.1826 8.33179 16.7863 9.07637 16.7863H9.36763C9.84455 16.7863 10.2919 16.5549 10.5674 16.1657L14.4017 10.7484V15.7836C14.4017 16.3375 14.8507 16.7863 15.4044 16.7863C15.7202 16.7863 16.0016 16.6402 16.1854 16.4121L16.1868 16.4236L19.9943 10.7856V16.7861C21.1019 16.7861 22 15.8883 22 14.7804V8.00271C22.0002 7.44904 21.5512 7 20.9973 7Z" fill="#00BAFF"/>
</svg>
